<?xml version="1.0" encoding="UTF-8"?>
<svg id="Layer_1" xmlns="http://www.w3.org/2000/svg" version="1.1" xmlns:xlink="http://www.w3.org/1999/xlink" viewBox="0 0 1440 1440">
  <!-- Generator: Adobe Illustrator 29.5.1, SVG Export Plug-In . SVG Version: 2.1.0 Build 141)  -->
  <defs>
    <style>
      .st0 {
        letter-spacing: 0em;
      }

      .st1 {
        clip-path: url(#clippath-6);
      }

      .st2 {
        clip-path: url(#clippath-7);
      }

      .st3, .st4, .st5 {
        fill: #fff;
      }

      .st3, .st6 {
        opacity: .4;
      }

      .st7 {
        clip-path: url(#clippath-4);
      }

      .st8 {
        stroke-width: 3px;
      }

      .st8, .st9, .st10, .st6, .st11, .st12, .st13 {
        fill: none;
      }

      .st8, .st9, .st6, .st11, .st12, .st13 {
        stroke-miterlimit: 8;
      }

      .st8, .st9, .st12 {
        stroke: #6b1218;
      }

      .st4, .st14 {
        font-family: Arial-BoldMT, Arial;
        font-size: 48px;
        font-weight: 700;
      }

      .st15 {
        letter-spacing: 0em;
      }

      .st16 {
        clip-path: url(#clippath-9);
      }

      .st17 {
        clip-path: url(#clippath-10);
      }

      .st18 {
        letter-spacing: 0em;
      }

      .st9, .st12 {
        stroke-width: 4.5px;
      }

      .st19 {
        mask: url(#mask);
      }

      .st20 {
        fill: url(#linear-gradient1);
      }

      .st21 {
        letter-spacing: 0em;
      }

      .st22 {
        letter-spacing: 0em;
      }

      .st23 {
        letter-spacing: 0em;
      }

      .st6 {
        stroke: #fff;
        stroke-width: 1.5px;
      }

      .st14, .st24 {
        fill: #6b1218;
      }

      .st25 {
        letter-spacing: 0em;
      }

      .st26 {
        letter-spacing: 0em;
      }

      .st27 {
        clip-path: url(#clippath-1);
      }

      .st28 {
        letter-spacing: 0em;
      }

      .st29 {
        clip-path: url(#clippath-5);
      }

      .st30 {
        clip-path: url(#clippath-8);
      }

      .st11 {
        stroke: #ffb0be;
        stroke-width: 24px;
      }

      .st12 {
        stroke-linecap: round;
      }

      .st31 {
        clip-path: url(#clippath-3);
      }

      .st32 {
        letter-spacing: 0em;
      }

      .st33 {
        letter-spacing: 0em;
      }

      .st34 {
        letter-spacing: 0em;
      }

      .st35 {
        letter-spacing: 0em;
      }

      .st36 {
        fill: #ffb0be;
      }

      .st36, .st37, .st24 {
        fill-rule: evenodd;
      }

      .st38 {
        fill: #e8eaec;
      }

      .st39 {
        clip-path: url(#clippath-2);
      }

      .st13 {
        stroke: #000;
      }

      .st40 {
        fill: url(#linear-gradient);
      }

      .st41 {
        clip-path: url(#clippath);
      }

      .st42 {
        filter: url(#luminosity-noclip);
      }
    </style>
    <clipPath id="clippath">
      <rect class="st10" width="1440" height="1440"/>
    </clipPath>
    <clipPath id="clippath-1">
      <rect class="st10" x="228.5" y="196.4" width="997.2" height="468.2"/>
    </clipPath>
    <clipPath id="clippath-2">
      <rect class="st10" x="228.5" y="196.4" width="997.2" height="468.4"/>
    </clipPath>
    <clipPath id="clippath-3">
      <path class="st10" d="M289.8,470.8c-7.3,113.7-36.7,185.3-70,287h997.2c-609.7-80.5-745.4-113-863-289.6l-64.1,2.6Z"/>
    </clipPath>
    <filter id="luminosity-noclip" x="219.7" y="468.2" width="997.2" height="289.6" color-interpolation-filters="sRGB" filterUnits="userSpaceOnUse">
      <feFlood flood-color="#fff" result="bg"/>
      <feBlend in="SourceGraphic" in2="bg"/>
    </filter>
    <linearGradient id="linear-gradient" x1="278.9" y1="2411.8" x2="278.9" y2="2122.2" gradientTransform="translate(439.5 2880) scale(1 -1)" gradientUnits="userSpaceOnUse">
      <stop offset="0" stop-color="gray"/>
      <stop offset=".2" stop-color="gray"/>
      <stop offset=".3" stop-color="gray"/>
      <stop offset=".5" stop-color="gray"/>
      <stop offset=".7" stop-color="#aaa"/>
      <stop offset=".8" stop-color="#d4d4d4"/>
      <stop offset="1" stop-color="#fff"/>
    </linearGradient>
    <mask id="mask" x="219.7" y="468.2" width="997.2" height="289.6" maskUnits="userSpaceOnUse">
      <g class="st42">
        <rect class="st40" x="219.7" y="468.2" width="997.2" height="289.6"/>
      </g>
    </mask>
    <linearGradient id="linear-gradient1" x1="278.9" y1="2411.8" x2="278.9" y2="2122.2" gradientTransform="translate(439.5 2880) scale(1 -1)" gradientUnits="userSpaceOnUse">
      <stop offset="0" stop-color="#fff"/>
      <stop offset=".2" stop-color="#fff"/>
      <stop offset=".3" stop-color="#fff"/>
      <stop offset=".5" stop-color="#fff"/>
      <stop offset=".7" stop-color="#f7f7f8"/>
      <stop offset=".8" stop-color="#eff1f2"/>
      <stop offset="1" stop-color="#e8eaec"/>
    </linearGradient>
    <clipPath id="clippath-4">
      <rect class="st10" width="1440" height="1440"/>
    </clipPath>
    <clipPath id="clippath-5">
      <rect class="st10" width="1440" height="1440"/>
    </clipPath>
    <clipPath id="clippath-6">
      <rect class="st10" width="1440" height="1440"/>
    </clipPath>
    <clipPath id="clippath-7">
      <rect class="st10" width="1440" height="1440"/>
    </clipPath>
    <clipPath id="clippath-8">
      <rect class="st10" width="1440" height="1440"/>
    </clipPath>
    <clipPath id="clippath-9">
      <rect class="st10" width="1440" height="1440"/>
    </clipPath>
    <clipPath id="clippath-10">
      <rect class="st10" width="1440" height="1440"/>
    </clipPath>
  </defs>
  <g class="st41">
    <rect class="st5" width="1440" height="1440"/>
    <rect class="st38" x="219.7" y="757.8" width="997.2" height="468.2"/>
    <g class="st27">
      <g class="st39">
        <image width="1126" height="529" transform="translate(228.5 196.4) scale(.9)" xlink:href="fig-5-1.png"/>
      </g>
    </g>
    <g>
      <rect class="st3" x="228.2" y="196.4" width="997.2" height="468.2"/>
      <rect class="st6" x="228.2" y="196.4" width="997.2" height="468.2"/>
    </g>
    <rect class="st9" x="777.6" y="300.4" width="45.9" height="104.8"/>
    <rect class="st9" x="648.7" y="272.1" width="62.3" height="111.8"/>
    <rect class="st9" x="1154.1" y="311" width="60.3" height="83.6"/>
    <rect class="st9" x="975.5" y="435.6" width="119.4" height="171.3"/>
    <rect class="st9" x="587.3" y="446" width="125.5" height="88.2"/>
    <rect class="st9" x="292.5" y="288.2" width="59" height="179"/>
    <line class="st9" x1="712.8" y1="520.4" x2="777.6" y2="533"/>
    <line class="st12" x1="683.2" y1="432.9" x2="859" y2="467.2"/>
    <line class="st12" x1="320.8" y1="517.7" x2="1038.3" y2="657.4"/>
    <line class="st12" x1="951" y1="395.5" x2="703.4" y2="594"/>
    <line class="st12" x1="949.1" y1="395.5" x2="1187.4" y2="441.9"/>
    <line class="st9" x1="320.8" y1="506.4" x2="320.8" y2="478.4"/>
    <polygon class="st24" points="327.6 480.7 320.8 467.2 314.1 480.7 327.6 480.7"/>
    <polygon class="st24" points="314.1 504.2 320.8 517.7 327.6 504.2 314.1 504.2"/>
    <line class="st9" x1="480.2" y1="466" x2="480.2" y2="438"/>
    <polygon class="st24" points="486.9 440.2 480.2 426.7 473.4 440.2 486.9 440.2"/>
    <polygon class="st24" points="473.4 463.7 480.2 477.2 486.9 463.7 473.4 463.7"/>
    <line class="st9" x1="803" y1="444.5" x2="803" y2="416.5"/>
    <polygon class="st24" points="809.8 418.8 803 405.3 796.3 418.8 809.8 418.8"/>
    <polygon class="st24" points="796.3 442.3 803 455.8 809.8 442.3 796.3 442.3"/>
    <line class="st9" x1="680.6" y1="423.8" x2="680.6" y2="395.8"/>
    <polygon class="st24" points="687.4 398 680.6 384.5 673.9 398 687.4 398"/>
    <polygon class="st24" points="673.9 421.5 680.6 435 687.4 421.5 673.9 421.5"/>
    <line class="st12" x1="478.8" y1="474.9" x2="587.3" y2="496"/>
    <line class="st9" x1="648.7" y1="572.3" x2="648.7" y2="544.3"/>
    <polygon class="st24" points="655.5 546.5 648.7 533 642 546.5 655.5 546.5"/>
    <polygon class="st24" points="642 570.1 648.7 583.6 655.5 570.1 642 570.1"/>
    <line class="st9" x1="1187.4" y1="434.7" x2="1187.4" y2="406.7"/>
    <polygon class="st24" points="1194.2 409 1187.4 395.5 1180.7 409 1194.2 409"/>
    <polygon class="st24" points="1180.7 432.5 1187.4 446 1194.2 432.5 1180.7 432.5"/>
    <line class="st9" x1="1038.3" y1="646.2" x2="1038.3" y2="618.2"/>
    <polygon class="st24" points="1045 620.4 1038.3 606.9 1031.5 620.4 1045 620.4"/>
    <polygon class="st24" points="1031.5 643.9 1038.3 657.4 1045 643.9 1031.5 643.9"/>
    <rect class="st9" x="892" y="476.6" width="45.9" height="104.8"/>
    <line class="st9" x1="915.2" y1="620.9" x2="915.2" y2="592.9"/>
    <polygon class="st24" points="922 595.1 915.2 581.6 908.5 595.1 922 595.1"/>
    <polygon class="st24" points="908.5 618.7 915.2 632.2 922 618.7 908.5 618.7"/>
    <g class="st31">
      <g class="st19">
        <rect class="st20" x="219.7" y="468.2" width="997.2" height="289.6"/>
      </g>
    </g>
    <rect class="st9" x="414.2" y="305.2" width="125.5" height="121.8"/>
    <text class="st14" transform="translate(341.7 818.4)"><tspan x="0" y="0">unit</tspan></text>
    <text class="st14" transform="translate(429.5 818.4)"><tspan x="0" y="0">-</tspan></text>
    <text class="st14" transform="translate(445.6 818.4)"><tspan x="0" y="0">l</tspan><tspan class="st26" x="13.3" y="0">e</tspan><tspan class="st25" x="40" y="0">v</tspan><tspan class="st26" x="66.7" y="0">e</tspan><tspan x="93.4" y="0">l</tspan><tspan class="st35" x="106.7" y="0"> </tspan><tspan x="120.7" y="0">d</tspan><tspan class="st26" x="150" y="0">es</tspan><tspan x="203.3" y="0">ign,</tspan><tspan class="st28" x="288.6" y="0"> </tspan><tspan x="302.6" y="0">op</tspan><tspan class="st26" x="361.2" y="0">e</tspan><tspan x="387.8" y="0">r</tspan><tspan class="st26" x="406.5" y="0">at</tspan><tspan x="449.1" y="0">io</tspan><tspan class="st25" x="491.8" y="0">n</tspan><tspan x="521.1" y="0">,</tspan><tspan class="st32" x="534.5" y="0"> </tspan><tspan x="548.4" y="0">&amp; </tspan><tspan class="st26" x="596.4" y="0">c</tspan><tspan x="623" y="0">on</tspan><tspan class="st26" x="681.7" y="0">t</tspan><tspan x="697.6" y="0">rol</tspan></text>
    <text class="st4" transform="translate(469.9 244.5)"><tspan class="st26" x="0" y="0">syste</tspan><tspan x="122.5" y="0">m</tspan><tspan class="st0" x="165.2" y="0"> </tspan><tspan x="179" y="0">l</tspan><tspan class="st15" x="192.4" y="0">eve</tspan><tspan x="272.3" y="0">l</tspan><tspan class="st23" x="285.6" y="0"> </tspan><tspan x="299.4" y="0">op</tspan><tspan class="st26" x="358" y="0">t</tspan><tspan x="374" y="0">imiz</tspan><tspan class="st33" x="467.3" y="0">a</tspan><tspan x="494" y="0">tion</tspan><tspan class="st35" x="581.9" y="0"> </tspan><tspan x="595.9" y="0">b</tspan><tspan class="st26" x="625.3" y="0">ase</tspan><tspan x="705.2" y="0">d </tspan></text>
    <text class="st4" transform="translate(899 302.1)"><tspan x="0" y="0">on</tspan><tspan class="st18" x="58.6" y="0"> </tspan><tspan x="72.2" y="0">TE</tspan><tspan class="st34" x="133.5" y="0">A</tspan><tspan class="st22" x="166.4" y="0"> </tspan><tspan x="179.8" y="0">/</tspan><tspan class="st21" x="193.2" y="0"> </tspan><tspan x="206.6" y="0">LCA</tspan></text>
    <g class="st7">
      <path class="st11" d="M1225.9,430.5c89.1,0,178.1,140.3,178.1,280.7s-58.4,222-128.9,263.6"/>
      <polygon class="st36" points="1276.3 936.9 1217.5 991.9 1296.8 1005.9 1276.3 936.9"/>
    </g>
    <g class="st29">
      <path class="st11" d="M170.9,447.3c-71.8,41.3-131.2,152.6-131.2,263.9s90.3,280.7,180.7,280.7"/>
      <polygon class="st36" points="169.7 485.2 228.8 430.5 149.6 416 169.7 485.2"/>
    </g>
    <g class="st1">
      <path class="st8" d="M556.9,1035.7c0-20.6,16.7-37.3,37.3-37.3s37.3,16.7,37.3,37.3-16.7,37.3-37.3,37.3-37.3-16.7-37.3-37.3Z"/>
    </g>
    <line class="st8" x1="594.2" y1="998.4" x2="556.9" y2="1035.7"/>
    <line class="st8" x1="556.9" y1="1035.7" x2="631.5" y2="1035.7"/>
    <line class="st8" x1="631.5" y1="1035.7" x2="594.2" y2="1073"/>
    <line class="st13" x1="493.6" y1="1035.7" x2="551.9" y2="1035.7"/>
    <polygon class="st37" points="550.9 1032.7 556.9 1035.7 550.9 1038.7 550.9 1032.7"/>
    <line class="st13" x1="631.5" y1="1035.7" x2="689.8" y2="1035.7"/>
    <polygon class="st37" points="688.8 1032.7 694.8 1035.7 688.8 1038.7 688.8 1032.7"/>
    <line class="st13" x1="594.2" y1="998.4" x2="594.2" y2="920.8"/>
    <polygon class="st37" points="597.2 921.8 594.2 915.8 591.2 921.8 597.2 921.8"/>
    <line class="st13" x1="594.2" y1="1155.5" x2="594.2" y2="1078"/>
    <polygon class="st37" points="597.2 1079 594.2 1073 591.2 1079 597.2 1079"/>
    <g class="st2">
      <path class="st8" d="M910,987.6v65.4c0,36.1-28.8,65.4-64.3,65.4s-64.3-29.3-64.3-65.4v-65.4h128.5Z"/>
    </g>
    <g class="st30">
      <ellipse class="st8" cx="831.7" cy="1065.7" rx="13.8" ry="7.3"/>
    </g>
    <g class="st16">
      <ellipse class="st8" cx="859.8" cy="1065.7" rx="13.8" ry="7.3"/>
    </g>
    <line class="st8" x1="845.7" y1="930.7" x2="845.7" y2="1065.9"/>
    <line class="st13" x1="714.6" y1="1035.7" x2="776.5" y2="1035.7"/>
    <polygon class="st37" points="775.5 1032.7 781.5 1035.7 775.5 1038.7 775.5 1032.7"/>
    <line class="st13" x1="910" y1="1035.7" x2="971.9" y2="1035.7"/>
    <polygon class="st37" points="970.9 1032.7 976.9 1035.7 970.9 1038.7 970.9 1032.7"/>
    <g class="st17">
      <path class="st8" d="M404.6,920.7v192.7c0,25.2-17.3,45.7-38.7,45.7s-38.7-20.5-38.7-45.7v-192.7c0-25.2,17.3-45.7,38.7-45.7s38.7,20.5,38.7,45.7Z"/>
    </g>
    <line class="st13" x1="274.8" y1="925" x2="322.3" y2="925"/>
    <polygon class="st37" points="321.3 922 327.3 925 321.3 928 321.3 922"/>
    <line class="st13" x1="404.6" y1="1122.6" x2="452.1" y2="1122.6"/>
    <polygon class="st37" points="451.1 1119.6 457.1 1122.6 451.1 1125.6 451.1 1119.6"/>
    <polyline class="st13" points="288.7 1209.2 366 1209.2 366 1164.1"/>
    <polygon class="st37" points="369 1165.1 366 1159.1 363 1165.1 369 1165.1"/>
    <polyline class="st13" points="366 875 366 839.9 438.3 839.9"/>
    <polygon class="st37" points="437.3 836.9 443.3 839.9 437.3 842.9 437.3 836.9"/>
    <line class="st8" x1="327.3" y1="1117.6" x2="404.6" y2="1117.6"/>
    <line class="st8" x1="327.3" y1="942.4" x2="404.6" y2="1019.7"/>
    <line class="st8" x1="404.6" y1="942.4" x2="327.3" y2="1019.7"/>
    <line class="st8" x1="327.3" y1="1040.3" x2="404.6" y2="1117.6"/>
    <line class="st8" x1="404.6" y1="1040.3" x2="327.3" y2="1117.6"/>
    <line class="st8" x1="327.3" y1="1040.3" x2="404.6" y2="1040.3"/>
    <line class="st8" x1="327.3" y1="1019.3" x2="404.6" y2="1019.3"/>
    <line class="st8" x1="327.3" y1="942" x2="404.6" y2="942"/>
    <polygon class="st8" points="1116.7 1092.7 1005 1065.5 1005 1011 1116.7 983.7 1116.7 1092.7"/>
    <line class="st13" x1="1005" y1="1140.5" x2="1005" y2="1070.4"/>
    <polygon class="st37" points="1008 1071.4 1005 1065.4 1002 1071.4 1008 1071.4"/>
    <line class="st13" x1="1116.7" y1="983.7" x2="1116.7" y2="913.6"/>
    <polygon class="st37" points="1119.7 914.6 1116.7 908.6 1113.7 914.6 1119.7 914.6"/>
    <line class="st13" x1="1116.7" y1="1038.2" x2="1183.3" y2="1038.2"/>
    <polygon class="st37" points="1182.3 1041.2 1188.3 1038.2 1182.3 1035.2 1182.3 1041.2"/>
  </g>
</svg>